<?xml version="1.0" encoding="utf-8"?>
<!-- Generator: Adobe Illustrator 24.0.3, SVG Export Plug-In . SVG Version: 6.00 Build 0)  -->
<svg version="1.1" id="Layer_1" xmlns="http://www.w3.org/2000/svg" xmlns:xlink="http://www.w3.org/1999/xlink" x="0px" y="0px"
	 viewBox="0 0 122 23.78" style="enable-background:new 0 0 122 23.78;" xml:space="preserve">
<style type="text/css">
	.st0{fill:#24A67D;}
</style>
<g>
	<path class="st0" d="M77.47,17.88c0.57,0.66,1.42,0.99,2.59,0.99c1.15,0,2.06-0.24,2.4-0.33l0.03-0.01l-0.17-2.6
		c-0.17,0.06-0.57,0.17-0.99,0.17c-0.45,0-0.71-0.08-0.89-0.29c-0.18-0.21-0.33-0.44-0.33-1.39v-3.97h2.4V7.95h-2.4V4.42l-3.4,1.45
		v2.08h-1.54v2.52h1.54v4.28C76.71,16.37,76.93,17.26,77.47,17.88z"/>
	<rect x="69.39" y="2.72" class="st0" width="3.38" height="15.91"/>
	<path class="st0" d="M105.16,7.73c-1.17,0-2.03,0.56-2.62,1.7l-0.02,0.04h-0.16l0.02-1.54H99v10.7h3.38v-4.75
		c0-1.35,0.35-2.03,0.56-2.31c0.3-0.4,0.9-0.82,1.69-0.82c0.59,0,1.06,0.14,1.29,0.26h0.07l0.19-3.12
		C106.07,7.85,105.72,7.73,105.16,7.73z"/>
	<path class="st0" d="M118.91,12.96c0-3.13-2.16-5.23-5.36-5.23c-3.99,0-5.78,2.79-5.78,5.56c0,3.39,2.24,5.58,5.72,5.58
		c3.02,0,4.49-1.23,4.97-1.64c0.03-0.02,0.05-0.05,0.08-0.06l-1.3-1.72c-0.43,0.28-1.69,1.01-3.24,1.01c-1.64,0-2.7-0.87-2.84-2.33
		l-0.01-0.08h7.74C118.88,13.87,118.91,13.38,118.91,12.96z M111.16,12.19l0-0.08c0.05-1.12,0.86-2.25,2.32-2.25
		c1.46,0,2.27,1.16,2.29,2.25l0,0.07H111.16z"/>
	<path class="st0" d="M62.67,17.25l0.02,1.38h3.25V7.93h-3.38v5.69c0,1.58-0.69,2.49-1.9,2.49c-1.5,0-1.68-1.25-1.68-2.18v-6h-3.38
		v6.49c0,1.48,0.23,2.44,0.78,3.22c0.43,0.57,1.31,1.25,3.04,1.25c1.45,0,2.61-0.72,3.11-1.44L62.67,17.25z"/>
	<path class="st0" d="M92.38,17.25l0.02,1.38h3.25V7.93h-3.38v5.69c0,1.58-0.69,2.49-1.9,2.49c-1.5,0-1.68-1.25-1.68-2.18v-6h-3.38
		v6.49c0,1.48,0.23,2.44,0.78,3.22c0.43,0.57,1.31,1.25,3.04,1.25c1.45,0,2.61-0.72,3.11-1.44L92.38,17.25z"/>
	<path class="st0" d="M6.87,18.87c1.69,0,2.55-0.87,3.02-1.33l0.15-0.15l0.07,1.24h3.23v-6.05c0-1.69-0.38-2.78-1.28-3.62
		c-0.92-0.85-2.16-1.23-4-1.23C6,7.73,4.34,8.38,3.5,8.79l0.87,2.15c0.65-0.39,2-0.93,3.29-0.93c1.48,0,2.29,0.64,2.29,1.81v0.31
		l-2.8,0.11C3.4,12.4,3,14.57,3,15.49C3,17.83,4.94,18.87,6.87,18.87z M8.16,13.96l1.81-0.11v1.88l-0.01,0.02
		C9.76,16.1,9.1,16.77,8.1,16.77c-1.05,0-1.72-0.56-1.72-1.41C6.38,14.52,7.03,14.01,8.16,13.96z"/>
	<path class="st0" d="M21.92,10.47c1.61,0,1.74,1.33,1.74,2.58v5.58h3.38V12.3c0-3.12-1.24-4.57-3.89-4.57
		c-1.67,0-2.6,0.94-3.09,1.73l-0.02,0.03h-0.16l0.02-1.56h-3.38v10.7h3.38v-5.3C19.91,11.4,20.57,10.47,21.92,10.47z"/>
	<path class="st0" d="M49.75,16.11c-1.7,0-2.8-1.13-2.8-2.87c0-1.66,1.13-2.82,2.76-2.82c0.7,0,1.75,0.16,2.75,0.92l0.73-2.52
		c-0.22-0.17-1.48-1.1-3.94-1.1c-2.83,0-5.69,1.92-5.69,5.58c0,3.65,2.84,5.56,5.65,5.56c2.32,0,3.54-0.78,4.05-1.25l-0.79-2.51
		C52.18,15.36,51.17,16.11,49.75,16.11z"/>
	<path class="st0" d="M41.19,18.63V2.72h-3.38v6.69l-0.13-0.2c-0.1-0.15-1.06-1.49-3.37-1.49c-2.98,0-5.06,2.29-5.06,5.56
		c0,3.29,2.08,5.58,5.06,5.58c1.49,0,2.73-0.58,3.51-1.62l0.01-0.02l0.18-0.06l-0.02,1.46H41.19z M35.32,16.13
		c-1.55,0-2.63-1.19-2.63-2.89s1.08-2.89,2.63-2.89c1.56,0,2.6,1.16,2.6,2.89S36.88,16.13,35.32,16.13z"/>
</g>
</svg>
