<svg id="Capa_1" data-name="Capa 1" xmlns="http://www.w3.org/2000/svg" viewBox="0 0 18 18"><defs><style>.cls-1{fill:#6e848c;}</style></defs><title>social icons</title><path class="cls-1" d="M9,.68a8.5,8.5,0,1,0,8.5,8.5A8.5,8.5,0,0,0,9,.68Zm5.61,3.91a7.24,7.24,0,0,1,1.65,4.52,17.21,17.21,0,0,0-5.06-.23l-.15-.38c-.15-.35-.32-.71-.48-1A9.58,9.58,0,0,0,14.61,4.59ZM9,1.93a7.26,7.26,0,0,1,4.81,1.82A8.16,8.16,0,0,1,10,6.37,37.48,37.48,0,0,0,7.29,2.12,7.41,7.41,0,0,1,9,1.93Zm-3.09.68A43.37,43.37,0,0,1,8.6,6.81a27.28,27.28,0,0,1-6.71.88A7.29,7.29,0,0,1,5.91,2.61ZM1.74,9.18V9a26.32,26.32,0,0,0,7.45-1c.22.41.41.82.59,1.24l-.28.08A11.52,11.52,0,0,0,3.6,14,7.24,7.24,0,0,1,1.74,9.18ZM9,16.44a7.18,7.18,0,0,1-4.45-1.53,10,10,0,0,1,5.69-4.54h0a30.07,30.07,0,0,1,1.55,5.5A7.14,7.14,0,0,1,9,16.44Zm4.05-1.24A31.68,31.68,0,0,0,11.64,10a10.38,10.38,0,0,1,4.51.32A7.19,7.19,0,0,1,13.05,15.2Z"/></svg>