<svg id="Capa_1" data-name="Capa 1" xmlns="http://www.w3.org/2000/svg" viewBox="0 0 18 18"><defs><style>.cls-1{fill:#6e848c;fill-rule:evenodd;}</style></defs><title>social icons</title><path class="cls-1" d="M9,.59A8.51,8.51,0,0,0,6.31,17.18c.43.08.58-.19.58-.41s0-.74,0-1.45C4.51,15.83,4,14.18,4,14.18a2.27,2.27,0,0,0-.94-1.25c-.77-.52.06-.51.06-.51a1.79,1.79,0,0,1,1.3.87A1.82,1.82,0,0,0,6.91,14a1.77,1.77,0,0,1,.54-1.14c-1.89-.21-3.88-.94-3.88-4.2a3.25,3.25,0,0,1,.88-2.28,3.08,3.08,0,0,1,.08-2.26s.71-.23,2.34.88a8,8,0,0,1,4.26,0c1.63-1.11,2.34-.88,2.34-.88a3.08,3.08,0,0,1,.08,2.26,3.25,3.25,0,0,1,.88,2.28c0,3.27-2,4-3.89,4.2a2,2,0,0,1,.58,1.57c0,1.14,0,2.06,0,2.34s.15.49.58.41A8.51,8.51,0,0,0,9,.59Z"/></svg>