<svg id="Capa_1" data-name="Capa 1" xmlns="http://www.w3.org/2000/svg" viewBox="0 0 18 18"><defs><style>.cls-1{fill:#6e848c;}</style></defs><title>social icons</title><path class="cls-1" d="M12.25.32H5.75A5.43,5.43,0,0,0,.32,5.75v6.5a5.43,5.43,0,0,0,5.43,5.43h6.5a5.43,5.43,0,0,0,5.43-5.43V5.75A5.43,5.43,0,0,0,12.25.32Zm3.8,11.93a3.8,3.8,0,0,1-3.8,3.8H5.75A3.8,3.8,0,0,1,2,12.25V5.75A3.8,3.8,0,0,1,5.75,2h6.5a3.8,3.8,0,0,1,3.8,3.8Z"/><path class="cls-1" d="M9,4.66A4.34,4.34,0,1,0,13.34,9,4.34,4.34,0,0,0,9,4.66Zm0,7.05A2.71,2.71,0,1,1,11.71,9,2.72,2.72,0,0,1,9,11.71Z"/><circle class="cls-1" cx="13.66" cy="4.34" r="0.58"/></svg>