<svg id="Capa_1" data-name="Capa 1" xmlns="http://www.w3.org/2000/svg" viewBox="0 0 18 18"><defs><style>.cls-1{fill:#6e848c;}</style></defs><title>social icons</title><path class="cls-1" d="M17.7,3.39A7.44,7.44,0,0,1,15.61,4,3.6,3.6,0,0,0,17.2,2a7.27,7.27,0,0,1-2.3.88A3.62,3.62,0,0,0,8.63,5.32a3.68,3.68,0,0,0,.08.82A10.26,10.26,0,0,1,1.23,2.35,3.65,3.65,0,0,0,2.35,7.2,3.5,3.5,0,0,1,.71,6.75v0a3.66,3.66,0,0,0,2.9,3.57,3.58,3.58,0,0,1-.95.12A3.08,3.08,0,0,1,2,10.41a3.65,3.65,0,0,0,3.39,2.53,7.27,7.27,0,0,1-4.5,1.55A6.26,6.26,0,0,1,0,14.44a10.19,10.19,0,0,0,5.57,1.63A10.25,10.25,0,0,0,15.89,5.74c0-.16,0-.31,0-.47A7.39,7.39,0,0,0,17.7,3.39Z"/></svg>